<svg width="50" height="50" viewBox="0 0 50 50" fill="none" xmlns="http://www.w3.org/2000/svg">
<circle cx="25" cy="25" r="25" fill="#92E5B2"/>
<path d="M37 25C37 25.2652 36.8946 25.5196 36.7071 25.7071C36.5196 25.8946 36.2652 26 36 26H26V36C26 36.2652 25.8946 36.5196 25.7071 36.7071C25.5196 36.8946 25.2652 37 25 37C24.7348 37 24.4804 36.8946 24.2929 36.7071C24.1054 36.5196 24 36.2652 24 36V26H14C13.7348 26 13.4804 25.8946 13.2929 25.7071C13.1054 25.5196 13 25.2652 13 25C13 24.7348 13.1054 24.4804 13.2929 24.2929C13.4804 24.1054 13.7348 24 14 24H24V14C24 13.7348 24.1054 13.4804 24.2929 13.2929C24.4804 13.1054 24.7348 13 25 13C25.2652 13 25.5196 13.1054 25.7071 13.2929C25.8946 13.4804 26 13.7348 26 14V24H36C36.2652 24 36.5196 24.1054 36.7071 24.2929C36.8946 24.4804 37 24.7348 37 25Z" fill="black"/>
</svg>
