<svg width="23" height="23" viewBox="0 0 23 23" fill="none" xmlns="http://www.w3.org/2000/svg">
<path d="M15.5749 2.80005C13.768 2.80005 12.186 3.57705 11.1999 4.89042C10.2138 3.57705 8.63178 2.80005 6.8249 2.80005C5.3866 2.80167 4.00767 3.37375 2.99064 4.39079C1.97361 5.40782 1.40152 6.78675 1.3999 8.22505C1.3999 14.35 10.4815 19.3078 10.8683 19.5125C10.9702 19.5674 11.0842 19.5961 11.1999 19.5961C11.3156 19.5961 11.4296 19.5674 11.5315 19.5125C11.9183 19.3078 20.9999 14.35 20.9999 8.22505C20.9983 6.78675 20.4262 5.40782 19.4092 4.39079C18.3921 3.37375 17.0132 2.80167 15.5749 2.80005ZM11.1999 18.095C9.60215 17.164 2.7999 12.9229 2.7999 8.22505C2.80129 7.15798 3.2258 6.13501 3.98033 5.38048C4.73486 4.62595 5.75783 4.20144 6.8249 4.20005C8.52678 4.20005 9.95565 5.10655 10.5524 6.56255C10.6051 6.69094 10.6949 6.80075 10.8101 6.87803C10.9254 6.95531 11.0611 6.99657 11.1999 6.99657C11.3387 6.99657 11.4744 6.95531 11.5897 6.87803C11.7049 6.80075 11.7947 6.69094 11.8474 6.56255C12.4442 5.10392 13.873 4.20005 15.5749 4.20005C16.642 4.20144 17.6649 4.62595 18.4195 5.38048C19.174 6.13501 19.5985 7.15798 19.5999 8.22505C19.5999 12.9159 12.7959 17.1632 11.1999 18.095Z" fill="#404040"/>
<path d="M9.496 11.048C9.496 10.1307 9.64533 9.416 9.944 8.904C10.2427 8.38667 10.7653 8.128 11.512 8.128C12.2533 8.128 12.7733 8.38667 13.072 8.904C13.3707 9.416 13.52 10.1307 13.52 11.048C13.52 11.9813 13.3707 12.7067 13.072 13.224C12.7733 13.7413 12.2533 14 11.512 14C10.7653 14 10.2427 13.7413 9.944 13.224C9.64533 12.7067 9.496 11.9813 9.496 11.048ZM12.8 11.048C12.8 10.584 12.768 10.192 12.704 9.872C12.6453 9.54667 12.52 9.28533 12.328 9.088C12.1413 8.89067 11.8693 8.792 11.512 8.792C11.1493 8.792 10.872 8.89067 10.68 9.088C10.4933 9.28533 10.368 9.54667 10.304 9.872C10.2453 10.192 10.216 10.584 10.216 11.048C10.216 11.528 10.2453 11.9307 10.304 12.256C10.368 12.5813 10.4933 12.8427 10.68 13.04C10.872 13.2373 11.1493 13.336 11.512 13.336C11.8693 13.336 12.1413 13.2373 12.328 13.04C12.52 12.8427 12.6453 12.5813 12.704 12.256C12.768 11.9307 12.8 11.528 12.8 11.048Z" fill="#595959"/>
</svg>
